<svg xmlns="http://www.w3.org/2000/svg" viewBox="0 0 221.42 220.61"><defs><style>.cls-1{fill:#125896;}</style></defs><g id="Layer_2" data-name="Layer 2"><g id="Layer_1-2" data-name="Layer 1"><path class="cls-1" d="M199.12,176.78c-43.92,58.25-133.39,58.62-177,0,5-2.38,11.08-1.33,14.19,1.94,38.41,43.06,109.16,43,148,.64C187.84,175.46,193,174.35,199.12,176.78Z"/><path class="cls-1" d="M221.4,71.33c0-7.9-.27-15.79-.42-23.68,0-2.84-1.5-4.45-4.3-4.86C201.51,40.5,186.2,40.71,170.91,41a11,11,0,0,1-6.24-2.06c-31.18-23.8-76.46-24.35-107.61-.21a11.29,11.29,0,0,1-7.73,2.39c-14.59-.58-29.17-.51-43.68,1.52C.85,43.28.09,44.1.08,49c0,19,0,38,0,57H0Q0,134,0,162.07c0,6.55,1.56,7.69,8.18,7.21,10.05-.73,20.14-1.09,30.2-1.7a7.33,7.33,0,0,1,6.28,2.73,87.07,87.07,0,0,0,22.73,17.93c35.16,20,82,12.36,108.94-17.83a7.74,7.74,0,0,1,6.53-2.84c9.28.51,18.64.3,27.82,1.51,10.22,1.34,10.73-1.78,10.72-9.87C221.38,129.92,221.44,100.62,221.4,71.33ZM152.18,42.9C139,46.41,125.78,49,112.54,52a8.38,8.38,0,0,1-4.07.05,240.31,240.31,0,0,0-37.09-8.38A13.44,13.44,0,0,1,69.14,43C81.77,27.32,135.44,27.15,152.18,42.9ZM31.07,158.46c-5.58.26-11.16.63-16.74,1-4.19.25-4.48,0-4.48-4.13,0-33.37.05-66.74,0-100.1,0-1.81.42-3.22,2.52-3.34Q27.69,51,43.05,50.09l.57.91C19.17,80.11,13.68,121.42,33.19,154.71,35,157.93,34.78,158.29,31.07,158.46Zm14-2.32A79.25,79.25,0,0,1,54.81,53.6a6.76,6.76,0,0,1,4.69-1.79,236.28,236.28,0,0,1,42.07,8c3.11.86,4.29,2.29,4.25,5.63-.17,16.49-.08,33-.08,49.49s0,32.8,0,49.2c0,4.36,0,4.36-4.1,3.25a236,236,0,0,0-52-8.49A5.48,5.48,0,0,1,45.06,156.14Zm76.08,33.33c-27.31,3.93-52.92-8.36-63-20.51,17,1.42,33.21,6.44,49.73,10.16a12.36,12.36,0,0,0,6.07-.22,250.45,250.45,0,0,1,46.6-9.62,4.44,4.44,0,0,1,2.49.42C151.33,181.06,137.13,187.17,121.14,189.47ZM176.39,155a8.43,8.43,0,0,1-7.31,4.07,228.23,228.23,0,0,0-49.89,8.34c-4.26,1.19-4.33,1.16-4.34-3.34V114.86c0-16.59.06-33.19,0-49.79,0-2.85.82-4.3,3.71-5.09,13.91-3.8,28-6.89,42.34-8.14a6.88,6.88,0,0,1,4.78,1.6C193.34,79.49,197.93,123.61,176.39,155Zm35.4.49c0,3.95-.36,4.23-4.35,4-6-.35-12-.69-17.94-1.06-.76,0-1.52-.26-3-.53a89.62,89.62,0,0,0-9.36-107,33.06,33.06,0,0,1,3.69-.33c9,.34,17.95.75,26.93,1.07,2.92.1,4.14,1.21,4.13,4.38C211.76,89.14,211.8,122.3,211.79,155.47Z"/><path class="cls-1" d="M32.47,33c40.85-44,115.19-43.88,156.05,0-5.47-.08-10.69,1.93-16-2.11C149.28,13.07,123,6.3,94,10.86A99.69,99.69,0,0,0,46.67,32.09a6.5,6.5,0,0,1-3.49,1.39A49.75,49.75,0,0,1,32.47,33Z"/></g></g></svg>